<svg width="146" height="24" viewBox="0 0 146 24" fill="none" xmlns="http://www.w3.org/2000/svg">
<path d="M69.33 15.16V24H67.11V1.43H73.82C78.44 1.43 81.41 4.14 81.41 8.3C81.41 12.46 78.44 15.17 73.82 15.17H69.33V15.16ZM73.74 3.39H69.33V13.19H73.74C77.09 13.19 79.15 11.25 79.15 8.29C79.15 5.33 77.09 3.39 73.74 3.39ZM87.03 15.16V24H84.81V1.43H91.52C96.14 1.43 99.11 4.14 99.11 8.3C99.11 11.93 96.83 14.44 93.21 15.02L99.48 24H97L90.81 15.16H87.03ZM91.44 3.39H87.03V13.19H91.44C94.79 13.19 96.85 11.25 96.85 8.29C96.85 5.33 94.79 3.39 91.44 3.39ZM106 1.42V23.99H103.78V1.42H106ZM127.7 19.74L128.85 21.39C126.93 23.01 124.43 23.99 121.62 23.99C115.34 23.99 110.48 19.06 110.48 12.7C110.48 6.34 115.34 1.41 121.62 1.41C124.3 1.41 126.65 2.28 128.59 3.81L127.49 5.46C125.8 4.2 123.93 3.34 121.63 3.34C116.61 3.34 112.67 7.49 112.67 12.69C112.67 17.89 116.61 22.04 121.63 22.04C123.98 22.04 126.09 21.09 127.71 19.72L127.7 19.74ZM132.48 1.42H145.21V3.39H134.7V11.66H144.37V13.63H134.7V22.03H145.49V24H132.48V1.43V1.42ZM15.36 22.05L16.54 24H11.56L4.65 12.71L5.83 10.76L11.5 1.42H16.54L9.63 12.71H9.69L15.36 22.05ZM4.51 14.58V1.42H0V23.99H4.51V14.57V14.58ZM63.56 12C63.56 5.27 58.37 0 51.75 0C45.13 0 39.94 5.27 39.94 12C39.94 18.73 45.13 24 51.75 24C58.37 24 63.56 18.73 63.56 12ZM59.44 12C59.44 16.46 56.13 19.81 51.75 19.81C47.37 19.81 44.06 16.45 44.06 12C44.06 7.55 47.37 4.19 51.75 4.19C56.13 4.19 59.44 7.55 59.44 12ZM19.18 1.43H19.15V6.35C19.15 6.97 19.4 7.56 19.85 7.98L32.48 20L36.68 23.99H36.73V19.09C36.73 18.47 36.48 17.88 36.03 17.46L19.17 1.42L19.18 1.43ZM19.15 9.9V23.96H23.4V14.92C23.4 14.3 23.15 13.71 22.7 13.29L19.14 9.9H19.15ZM36.51 15.32V1.26H32.26V10.3C32.26 10.92 32.51 11.51 32.96 11.93L36.52 15.32H36.51Z" fill="#EA4C60"/>
</svg>
